<?xml version="1.0" standalone="no"?><!DOCTYPE svg PUBLIC "-//W3C//DTD SVG 1.1//EN" "http://www.w3.org/Graphics/SVG/1.1/DTD/svg11.dtd"><svg t="1726190024695" class="icon" viewBox="0 0 1024 1024" version="1.1" xmlns="http://www.w3.org/2000/svg" p-id="1475" xmlns:xlink="http://www.w3.org/1999/xlink" width="200" height="200"><path d="M930.133333 420.266667l-102.4-275.626667a92.16 92.16 0 0 0-85.333333-59.306667H282.026667a91.733333 91.733333 0 0 0-85.333334 59.306667L93.44 420.266667a103.68 103.68 0 0 0-2.986667 66.986666 128 128 0 0 0 61.44 74.666667v260.693333A116.053333 116.053333 0 0 0 267.946667 938.666667h491.093333a116.053333 116.053333 0 0 0 116.48-116.053334v-262.826666a128 128 0 0 0 58.026667-72.533334 104.106667 104.106667 0 0 0-3.413334-66.986666zM151.04 469.333333a38.826667 38.826667 0 0 1 0-26.453333L256 166.826667a27.733333 27.733333 0 0 1 26.453333-18.346667h459.093334a28.16 28.16 0 0 1 26.88 18.346667l102.4 275.2a42.666667 42.666667 0 0 1 2.133333 26.453333A67.84 67.84 0 0 1 810.666667 514.986667a66.133333 66.133333 0 0 1-66.986667-65.28 32 32 0 0 0-32-31.573334 31.573333 31.573333 0 0 0-31.573333 31.573334 67.413333 67.413333 0 0 1-134.4 0A31.573333 31.573333 0 0 0 512 418.133333a31.573333 31.573333 0 0 0-31.573333 30.72 67.413333 67.413333 0 0 1-134.826667 0 31.146667 31.146667 0 0 0-31.573333-31.146666 31.573333 31.573333 0 0 0-31.573334 31.146666 67.413333 67.413333 0 0 1-131.413333 20.48zM810.666667 822.613333a52.906667 52.906667 0 0 1-52.906667 52.906667H267.946667a52.906667 52.906667 0 0 1-52.48-52.906667v-244.48a128 128 0 0 0 98.56-44.8 131.413333 131.413333 0 0 0 197.973333 0 131.413333 131.413333 0 0 0 197.546667 0 132.266667 132.266667 0 0 0 98.986666 42.666667H810.666667z" p-id="1476" fill="#1296db"></path><path d="M346.453333 254.72m30.72 0l268.373334 0q30.72 0 30.72 30.72l0 1.706667q0 30.72-30.72 30.72l-268.373334 0q-30.72 0-30.72-30.72l0-1.706667q0-30.72 30.72-30.72Z" p-id="1477" fill="#1296db"></path></svg>