<?xml version="1.0" standalone="no"?><!DOCTYPE svg PUBLIC "-//W3C//DTD SVG 1.1//EN" "http://www.w3.org/Graphics/SVG/1.1/DTD/svg11.dtd"><svg t="1726890964169" class="icon" viewBox="0 0 1024 1024" version="1.1" xmlns="http://www.w3.org/2000/svg" p-id="4560" xmlns:xlink="http://www.w3.org/1999/xlink" width="200" height="200"><path d="M860.818989 70.447469c-29.457916-16.46602-61.582567-25.679869-92.89676-26.64587-34.743292-1.069355-67.346851 7.600095-96.894817 25.774013-101.588723 62.486146-142.272307 179.663916-161.367201 292.660456-19.138896-112.808252-59.858296-229.67903-161.26794-292.053636-29.547966-18.173918-62.147432-26.849508-96.894817-25.774013-31.315216 0.966001-63.438844 10.17985-92.897783 26.64587C88.786651 110.076024 43.676244 182.63355 43.676244 255.902274c0 11.213389 9.091052 20.305465 20.304442 20.305465s20.305465-9.091052 20.305465-20.305465c0-58.797128 36.94647-117.439736 94.127797-149.400658 50.444902-28.197202 104.645338-28.827559 148.70174-1.729387 112.048959 68.919672 140.732232 221.073024 153.203264 345.926614 3.719718 37.284161 6.568602 111.943558 6.785543 117.715005l0.303922 176.360683-0.001023 179.694615-0.035816 42.142819c-0.00921 11.214413 9.074679 20.312628 20.288069 20.321838 0.00614 0 0.011256 0 0.017396 0 1.739621 0 3.419889-0.242524 5.030573-0.654916 10.770298-0.508583 19.348674-9.379625 19.339464-20.273742l-0.034792-42.126446-0.002047-179.675172 0.303922-176.397522c0.216941-5.770424 3.064802-80.416518 6.785543-117.710912 12.472056-124.856659 41.156352-277.011035 153.203264-345.929684 44.058448-27.097148 98.257861-26.466792 148.70174 1.729387 57.181327 31.960922 94.127797 90.604554 94.127797 149.400658 0 11.213389 9.091052 20.305465 20.305465 20.305465s20.305465-9.091052 20.305465-20.305465C975.743438 182.027753 930.633031 109.470227 860.818989 70.447469z" p-id="4561" fill="#1296db"></path></svg>